<svg xmlns:xlink="http://www.w3.org/1999/xlink" xmlns="http://www.w3.org/2000/svg" version="1.1" id="Layer_1" x="0" y="0" viewBox="0 0 100 100" xml:space="preserve" width="187"  height="200" ><g><path d="M69.5 51.4l-7.8-7.8-7.5-7.5-4.4-4.4-3.1-3.1-3.5-3.5-3.1-3.1-11.5-11.5c-1-1-2.7-.3-2.7 1.1V86c0 2.3 1.9 4.1 4.2 4 .4 0 .8-.1 1.2-.1 1-.1 2-.1 3-.2.4 0 .8-.1 1.2-.2 1-.1 1.9-.2 2.9-.4.4-.1.7-.1 1.1-.2 1-.2 2-.3 2.9-.5.3-.1.6-.2 1-.2 1-.2 2-.4 3-.7.3-.1.5-.1.8-.2 1.1-.3 2.1-.6 3.1-.9.2-.1.4-.1.6-.2 1.1-.3 2.1-.7 3.2-1.1.1-.1.3-.1.4-.2 1.1-.4 2.2-.9 3.3-1.3.1 0 .2-.1.3-.1 1.1-.5 2.3-1 3.4-1.5.1 0 .1-.1.2-.1 1.1-.6 2.3-1.1 3.4-1.8h.1c5.7-3.2 11-7 15.8-11.4 1.7-1.5 1.7-4.2.1-5.8L69.5 51.4z" fill="#f47e5f"/><path d="M61.7 43.6l-7.5-7.5-4.4-4.4-3.1-3.1-3.5-3.5-3.1-3.1-11.5-11.5c-1-1-2.7-.3-2.7 1.1v58.2c17.1 0 32.6-7 43.6-18.4l-7.8-7.8z" fill="#f7b26a"/><path d="M29.8 38.4c0-3.5-1.7-6.4-4-7.5V46c2.4-1.1 4-4.1 4-7.6z" fill="#849b87"/><path d="M48.6 44.8c0 4.9 2.9 8.9 6.5 9 3.6 0 6.6-3.9 6.7-8.8 0-.5 0-.9-.1-1.3l-7.5-7.5c-3.2.6-5.6 4.2-5.6 8.6z" fill="#849b87"/><path d="M36.5 28.1c0 3.9 3.2 7.1 7.1 7.1 2.6 0 4.9-1.4 6.1-3.5l-3.1-3.1c-.2 1.5-1.5 2.6-3 2.6-1.7 0-3.1-1.4-3.1-3.1 0-1.5 1.1-2.8 2.6-3l-3-3.1c-2.1 1.2-3.6 3.5-3.6 6.1z" fill="#333"/></g><path d="M32 56.8l15 7.9c1.3.7 2.8-.2 2.9-1.6.1-3.8-2.3-7.7-6.4-9.9-4.1-2.2-8.7-1.9-11.8.4-1.2.8-1 2.6.3 3.2z" fill="#e15c64"/><path d="M39.3 43.8l7.9-3.4c1.6-.7 1.6-2.9 0-3.6-1.8-.8-4-.8-6.2.1-2.1.9-3.7 2.5-4.3 4.4-.6 1.6 1 3.1 2.6 2.5z" fill="#e15c64"/><metadata xmlns:d="https://loading.io/stock/"><d:name>pizza</d:name><d:tags>pizza,pie,pancake,food,party</d:tags><d:license>by</d:license><d:slug>tdkcqj</d:slug></metadata></svg>